# Blender 4.0.2
# www.blender.org
o columns
v -38.014038 0.064741 -15.324516
v -37.822937 0.064741 -15.324516
v -37.822937 6.066042 -15.324516
v -38.014038 6.066042 -15.324516
v -37.822937 0.064741 -15.628807
v -37.822937 6.066042 -15.628807
v -38.014038 6.066042 -15.628807
v -38.014038 0.064741 -15.628807
v -38.014038 0.064743 14.957394
v -37.822937 0.064743 14.957394
v -37.822937 6.066044 14.957394
v -38.014038 6.066044 14.957394
v -37.822937 0.064743 14.652996
v -37.822937 6.066044 14.652996
v -38.014038 6.066044 14.652996
v -38.014038 0.064743 14.652996
v -38.054337 0.064743 5.498890
v -37.782639 0.064743 5.498890
v -37.782639 6.066044 5.498889
v -38.054337 6.066044 5.498889
v -37.782639 0.064743 5.194492
v -37.782639 6.066044 5.194492
v -38.054337 6.066044 5.194492
v -38.054337 0.064743 5.194492
v -38.054337 0.064742 -5.876911
v -37.782639 0.064742 -5.876911
v -37.782639 6.066043 -5.876912
v -38.054337 6.066043 -5.876912
v -37.782639 0.064742 -6.181309
v -37.782639 6.066043 -6.181309
v -38.054337 6.066043 -6.181309
v -38.054337 0.064742 -6.181309
vn 0.7071 -0.0000 0.7071
vn -0.5774 0.5774 0.5774
vn -0.7071 -0.0000 0.7071
vn 1.0000 -0.0000 -0.0000
vn 0.5774 0.5774 0.5774
vn 0.7071 0.7071 -0.0000
vn -0.7071 0.7071 -0.0000
vn 0.7071 -0.0000 -0.7071
vn 0.5773 0.5774 0.5774
vn 0.5774 0.5774 -0.5774
vn -0.5773 0.5774 -0.5774
vn -0.7071 -0.0000 -0.7071
vn -0.5774 0.5774 -0.5774
vn -1.0000 -0.0000 -0.0000
vt 0.669500 0.000500
vt 0.637800 0.998300
vt 0.637800 0.000500
vt 0.187900 0.998300
vt 0.238500 0.000500
vt 0.238500 0.998300
vt 0.869500 0.051100
vt 0.837700 0.000500
vt 0.869500 0.000500
vt 0.176100 0.000500
vt 0.125500 0.998300
vt 0.125500 0.000500
vt 0.573700 0.000500
vt 0.542000 0.998300
vt 0.542000 0.000500
vt 0.437800 0.998300
vt 0.488400 0.000500
vt 0.488400 0.998300
vt 0.902800 0.051100
vt 0.871000 0.000500
vt 0.902800 0.000500
vt 0.426000 0.000500
vt 0.375400 0.998300
vt 0.375400 0.000500
vt 0.500300 0.000500
vt 0.532100 0.998300
vt 0.500300 0.998300
vt 0.724600 0.000500
vt 0.679400 0.998300
vt 0.679400 0.000500
vt 0.312900 0.998300
vt 0.363500 0.000500
vt 0.363500 0.998300
vt 0.999500 0.051100
vt 0.954300 0.000500
vt 0.999500 0.000500
vt 0.301000 0.000500
vt 0.250400 0.998300
vt 0.250400 0.000500
vt 0.583600 0.000500
vt 0.628800 0.998300
vt 0.583600 0.998300
vt 0.778700 0.000500
vt 0.733600 0.998300
vt 0.733600 0.000500
vt 0.000500 0.998300
vt 0.051100 0.000500
vt 0.051100 0.998300
vt 0.949500 0.051100
vt 0.904300 0.000500
vt 0.949500 0.000500
vt 0.113600 0.000500
vt 0.063000 0.998300
vt 0.063000 0.000500
vt 0.787700 0.000500
vt 0.832900 0.998300
vt 0.787700 0.998300
vt 0.669500 0.998300
vt 0.187900 0.000500
vt 0.837700 0.051100
vt 0.176100 0.998300
vt 0.573700 0.998300
vt 0.437800 0.000500
vt 0.871000 0.051100
vt 0.426000 0.998300
vt 0.532100 0.000500
vt 0.724600 0.998300
vt 0.312900 0.000500
vt 0.954300 0.051100
vt 0.301000 0.998300
vt 0.628800 0.000500
vt 0.778700 0.998300
vt 0.000500 0.000500
vt 0.904300 0.051100
vt 0.113600 0.998300
vt 0.832900 0.000500
s 1
f 2/1/1 4/2/2 1/3/3
f 5/4/4 3/5/5 2/6/1
f 6/7/6 4/8/2 3/9/5
f 7/10/7 1/11/3 4/12/2
f 10/13/1 12/14/2 9/15/3
f 13/16/8 11/17/9 10/18/1
f 14/19/10 12/20/2 11/21/9
f 15/22/11 9/23/3 12/24/2
f 15/25/11 13/26/8 16/27/12
f 18/28/1 20/29/2 17/30/3
f 21/31/8 19/32/9 18/33/1
f 22/34/10 20/35/2 19/36/9
f 23/37/13 17/38/3 20/39/2
f 23/40/13 21/41/8 24/42/12
f 26/43/1 28/44/2 25/45/3
f 29/46/8 27/47/9 26/48/1
f 30/49/10 28/50/2 27/51/9
f 31/52/13 25/53/3 28/54/2
f 31/55/13 29/56/8 32/57/12
f 2/1/1 3/58/5 4/2/2
f 5/4/4 6/59/6 3/5/5
f 6/7/6 7/60/7 4/8/2
f 7/10/7 8/61/14 1/11/3
f 10/13/1 11/62/9 12/14/2
f 13/16/8 14/63/10 11/17/9
f 14/19/10 15/64/11 12/20/2
f 15/22/11 16/65/12 9/23/3
f 15/25/11 14/66/10 13/26/8
f 18/28/1 19/67/9 20/29/2
f 21/31/8 22/68/10 19/32/9
f 22/34/10 23/69/13 20/35/2
f 23/37/13 24/70/12 17/38/3
f 23/40/13 22/71/10 21/41/8
f 26/43/1 27/72/9 28/44/2
f 29/46/8 30/73/10 27/47/9
f 30/49/10 31/74/13 28/50/2
f 31/52/13 32/75/12 25/53/3
f 31/55/13 30/76/10 29/56/8
o columns001
v -45.660637 0.064741 -15.324409
v -45.469437 0.064741 -15.324409
v -45.469437 6.066042 -15.324409
v -45.660637 6.066042 -15.324409
v -45.469437 0.064741 -15.628807
v -45.469437 6.066042 -15.628807
v -45.660637 6.066042 -15.628807
v -45.660637 0.064741 -15.628807
v -45.660637 0.064743 14.957394
v -45.469437 0.064743 14.957394
v -45.469437 6.066044 14.957394
v -45.660637 6.066044 14.957394
v -45.469437 0.064743 14.652996
v -45.469437 6.066044 14.652996
v -45.660637 6.066044 14.652996
v -45.660637 0.064743 14.652996
vn 0.7071 -0.0000 0.7071
vn -0.5774 0.5774 0.5773
vn -0.7071 -0.0000 0.7071
vn 1.0000 -0.0000 -0.0000
vn 0.5773 0.5774 0.5774
vn 0.7071 0.7071 -0.0000
vn -0.7071 0.7071 -0.0000
vn 0.7071 -0.0000 -0.7071
vn 0.5774 0.5774 -0.5774
vn -0.5774 0.5774 -0.5773
vn -0.7071 -0.0000 -0.7071
vn -1.0000 -0.0000 -0.0000
vt 0.669500 0.000500
vt 0.637800 0.998300
vt 0.637800 0.000500
vt 0.187900 0.998300
vt 0.238500 0.000500
vt 0.238500 0.998300
vt 0.869500 0.051100
vt 0.837700 0.000500
vt 0.869500 0.000500
vt 0.176100 0.000500
vt 0.125500 0.998300
vt 0.125500 0.000500
vt 0.573700 0.000500
vt 0.542000 0.998300
vt 0.542000 0.000500
vt 0.437800 0.998300
vt 0.488400 0.000500
vt 0.488400 0.998300
vt 0.902800 0.051100
vt 0.871000 0.000500
vt 0.902800 0.000500
vt 0.426000 0.000500
vt 0.375400 0.998300
vt 0.375400 0.000500
vt 0.500300 0.000500
vt 0.532100 0.998300
vt 0.500300 0.998300
vt 0.669500 0.998300
vt 0.187900 0.000500
vt 0.837700 0.051100
vt 0.176100 0.998300
vt 0.573700 0.998300
vt 0.437800 0.000500
vt 0.871000 0.051100
vt 0.426000 0.998300
vt 0.532100 0.000500
s 1
f 34/77/15 36/78/16 33/79/17
f 37/80/18 35/81/19 34/82/15
f 38/83/20 36/84/16 35/85/19
f 39/86/21 33/87/17 36/88/16
f 42/89/15 44/90/16 41/91/17
f 45/92/22 43/93/19 42/94/15
f 46/95/23 44/96/16 43/97/19
f 47/98/24 41/99/17 44/100/16
f 47/101/24 45/102/22 48/103/25
f 34/77/15 35/104/19 36/78/16
f 37/80/18 38/105/20 35/81/19
f 38/83/20 39/106/21 36/84/16
f 39/86/21 40/107/26 33/87/17
f 42/89/15 43/108/19 44/90/16
f 45/92/22 46/109/23 43/93/19
f 46/95/23 47/110/24 44/96/16
f 47/98/24 48/111/25 41/99/17
f 47/101/24 46/112/23 45/102/22
o columns002
v -30.367538 0.064741 -15.324409
v -30.176331 0.064741 -15.324409
v -30.176331 6.066042 -15.324409
v -30.367538 6.066042 -15.324409
v -30.176331 0.064741 -15.628807
v -30.176331 6.066042 -15.628807
v -30.367538 6.066042 -15.628807
v -30.367538 0.064741 -15.628807
v -30.367538 0.064743 14.957394
v -30.176331 0.064743 14.957394
v -30.176331 6.066044 14.957394
v -30.367538 6.066044 14.957394
v -30.176331 0.064743 14.652996
v -30.176331 6.066044 14.652996
v -30.367538 6.066044 14.652996
v -30.367538 0.064743 14.652996
v -30.407837 0.064743 5.498890
v -30.136032 0.064743 5.498890
v -30.136032 6.066044 5.498889
v -30.407837 6.066044 5.498889
v -30.136032 0.064743 5.194592
v -30.136032 6.066044 5.194591
v -30.407837 6.066044 5.194591
v -30.407837 0.064743 5.194592
v -30.407837 0.064742 -5.876911
v -30.136032 0.064742 -5.876911
v -30.136032 6.066043 -5.876912
v -30.407837 6.066043 -5.876912
v -30.136032 0.064742 -6.181309
v -30.136032 6.066043 -6.181309
v -30.407837 6.066043 -6.181309
v -30.407837 0.064742 -6.181309
vn 0.7071 -0.0000 0.7071
vn -0.5774 0.5774 0.5774
vn -0.7071 -0.0000 0.7071
vn 1.0000 -0.0000 -0.0000
vn 0.5773 0.5774 0.5774
vn 0.7071 0.7071 -0.0000
vn -0.7071 0.7071 -0.0000
vn 0.7071 -0.0000 -0.7071
vn 0.5774 0.5774 -0.5774
vn -0.5774 0.5774 -0.5774
vn -0.7071 -0.0000 -0.7071
vn 0.5774 0.5774 0.5774
vn -1.0000 -0.0000 -0.0000
vt 0.669500 0.000500
vt 0.637800 0.998300
vt 0.637800 0.000500
vt 0.187900 0.998300
vt 0.238500 0.000500
vt 0.238500 0.998300
vt 0.869500 0.051100
vt 0.837700 0.000500
vt 0.869500 0.000500
vt 0.176100 0.000500
vt 0.125500 0.998300
vt 0.125500 0.000500
vt 0.573700 0.000500
vt 0.542000 0.998300
vt 0.542000 0.000500
vt 0.437800 0.998300
vt 0.488400 0.000500
vt 0.488400 0.998300
vt 0.902800 0.051100
vt 0.871000 0.000500
vt 0.902800 0.000500
vt 0.426000 0.000500
vt 0.375400 0.998300
vt 0.375400 0.000500
vt 0.500300 0.000500
vt 0.532100 0.998300
vt 0.500300 0.998300
vt 0.724600 0.000500
vt 0.679400 0.998300
vt 0.679400 0.000500
vt 0.312900 0.998300
vt 0.363500 0.000500
vt 0.363500 0.998300
vt 0.999500 0.051100
vt 0.954300 0.000500
vt 0.999500 0.000500
vt 0.301000 0.000500
vt 0.250400 0.998300
vt 0.250400 0.000500
vt 0.583600 0.000500
vt 0.628800 0.998300
vt 0.583600 0.998300
vt 0.778700 0.000500
vt 0.733600 0.998300
vt 0.733600 0.000500
vt 0.000500 0.998300
vt 0.051100 0.000500
vt 0.051100 0.998300
vt 0.949500 0.051100
vt 0.904300 0.000500
vt 0.949500 0.000500
vt 0.113600 0.000500
vt 0.063000 0.998300
vt 0.063000 0.000500
vt 0.787700 0.000500
vt 0.832900 0.998300
vt 0.787700 0.998300
vt 0.669500 0.998300
vt 0.187900 0.000500
vt 0.837700 0.051100
vt 0.176100 0.998300
vt 0.573700 0.998300
vt 0.437800 0.000500
vt 0.871000 0.051100
vt 0.426000 0.998300
vt 0.532100 0.000500
vt 0.724600 0.998300
vt 0.312900 0.000500
vt 0.954300 0.051100
vt 0.301000 0.998300
vt 0.628800 0.000500
vt 0.778700 0.998300
vt 0.000500 0.000500
vt 0.904300 0.051100
vt 0.113600 0.998300
vt 0.832900 0.000500
s 1
f 50/113/27 52/114/28 49/115/29
f 53/116/30 51/117/31 50/118/27
f 54/119/32 52/120/28 51/121/31
f 55/122/33 49/123/29 52/124/28
f 58/125/27 60/126/28 57/127/29
f 61/128/34 59/129/31 58/130/27
f 62/131/35 60/132/28 59/133/31
f 63/134/36 57/135/29 60/136/28
f 63/137/36 61/138/34 64/139/37
f 66/140/27 68/141/28 65/142/29
f 69/143/34 67/144/38 66/145/27
f 70/146/35 68/147/28 67/148/38
f 71/149/36 65/150/29 68/151/28
f 71/152/36 69/153/34 72/154/37
f 74/155/27 76/156/28 73/157/29
f 77/158/34 75/159/31 74/160/27
f 78/161/35 76/162/28 75/163/31
f 79/164/36 73/165/29 76/166/28
f 79/167/36 77/168/34 80/169/37
f 50/113/27 51/170/31 52/114/28
f 53/116/30 54/171/32 51/117/31
f 54/119/32 55/172/33 52/120/28
f 55/122/33 56/173/39 49/123/29
f 58/125/27 59/174/31 60/126/28
f 61/128/34 62/175/35 59/129/31
f 62/131/35 63/176/36 60/132/28
f 63/134/36 64/177/37 57/135/29
f 63/137/36 62/178/35 61/138/34
f 66/140/27 67/179/38 68/141/28
f 69/143/34 70/180/35 67/144/38
f 70/146/35 71/181/36 68/147/28
f 71/149/36 72/182/37 65/150/29
f 71/152/36 70/183/35 69/153/34
f 74/155/27 75/184/31 76/156/28
f 77/158/34 78/185/35 75/159/31
f 78/161/35 79/186/36 76/162/28
f 79/164/36 80/187/37 73/165/29
f 79/167/36 78/188/35 77/168/34
o columns003
v -22.720932 0.064741 -15.324409
v -22.529831 0.064741 -15.324409
v -22.529831 6.066042 -15.324409
v -22.720932 6.066042 -15.324409
v -22.529831 0.064741 -15.628807
v -22.529831 6.066042 -15.628807
v -22.720932 6.066042 -15.628807
v -22.720932 0.064741 -15.628807
v -22.720932 0.064743 14.957394
v -22.529831 0.064743 14.957394
v -22.529831 6.066044 14.957394
v -22.720932 6.066044 14.957394
v -22.529831 0.064743 14.652996
v -22.529831 6.066044 14.652996
v -22.720932 6.066044 14.652996
v -22.720932 0.064743 14.652996
v -22.761230 0.064743 5.498890
v -22.489441 0.064743 5.498890
v -22.489441 6.066044 5.498889
v -22.761230 6.066044 5.498889
v -22.489441 0.064743 5.194592
v -22.489441 6.066044 5.194591
v -22.761230 6.066044 5.194591
v -22.761230 0.064743 5.194592
v -22.761230 0.064742 -5.876911
v -22.489441 0.064742 -5.876911
v -22.489441 6.066043 -5.876912
v -22.761230 6.066043 -5.876912
v -22.489441 0.064742 -6.181309
v -22.489441 6.066043 -6.181309
v -22.761230 6.066043 -6.181309
v -22.761230 0.064742 -6.181309
vn 0.7071 -0.0000 0.7071
vn -0.5774 0.5774 0.5774
vn -0.7071 -0.0000 0.7071
vn 1.0000 -0.0000 -0.0000
vn 0.5773 0.5774 0.5774
vn 0.7071 0.7071 -0.0000
vn -0.7071 0.7071 -0.0000
vn 0.7071 -0.0000 -0.7071
vn 0.5774 0.5774 -0.5774
vn -0.5773 0.5774 -0.5774
vn -0.7071 -0.0000 -0.7071
vn 0.5774 0.5774 0.5774
vn -0.5774 0.5774 -0.5774
vn -1.0000 -0.0000 -0.0000
vt 0.669500 0.000500
vt 0.637800 0.998300
vt 0.637800 0.000500
vt 0.187900 0.998300
vt 0.238500 0.000500
vt 0.238500 0.998300
vt 0.869500 0.051100
vt 0.837700 0.000500
vt 0.869500 0.000500
vt 0.176100 0.000500
vt 0.125500 0.998300
vt 0.125500 0.000500
vt 0.573700 0.000500
vt 0.542000 0.998300
vt 0.542000 0.000500
vt 0.437800 0.998300
vt 0.488400 0.000500
vt 0.488400 0.998300
vt 0.902800 0.051100
vt 0.871000 0.000500
vt 0.902800 0.000500
vt 0.426000 0.000500
vt 0.375400 0.998300
vt 0.375400 0.000500
vt 0.500300 0.000500
vt 0.532100 0.998300
vt 0.500300 0.998300
vt 0.724600 0.000500
vt 0.679400 0.998300
vt 0.679400 0.000500
vt 0.312900 0.998300
vt 0.363500 0.000500
vt 0.363500 0.998300
vt 0.999500 0.051100
vt 0.954300 0.000500
vt 0.999500 0.000500
vt 0.301000 0.000500
vt 0.250400 0.998300
vt 0.250400 0.000500
vt 0.583600 0.000500
vt 0.628800 0.998300
vt 0.583600 0.998300
vt 0.778700 0.000500
vt 0.733600 0.998300
vt 0.733600 0.000500
vt 0.000500 0.998300
vt 0.051100 0.000500
vt 0.051100 0.998300
vt 0.949500 0.051100
vt 0.904300 0.000500
vt 0.949500 0.000500
vt 0.113600 0.000500
vt 0.063000 0.998300
vt 0.063000 0.000500
vt 0.787700 0.000500
vt 0.832900 0.998300
vt 0.787700 0.998300
vt 0.669500 0.998300
vt 0.187900 0.000500
vt 0.837700 0.051100
vt 0.176100 0.998300
vt 0.573700 0.998300
vt 0.437800 0.000500
vt 0.871000 0.051100
vt 0.426000 0.998300
vt 0.532100 0.000500
vt 0.724600 0.998300
vt 0.312900 0.000500
vt 0.954300 0.051100
vt 0.301000 0.998300
vt 0.628800 0.000500
vt 0.778700 0.998300
vt 0.000500 0.000500
vt 0.904300 0.051100
vt 0.113600 0.998300
vt 0.832900 0.000500
s 1
f 82/189/40 84/190/41 81/191/42
f 85/192/43 83/193/44 82/194/40
f 86/195/45 84/196/41 83/197/44
f 87/198/46 81/199/42 84/200/41
f 90/201/40 92/202/41 89/203/42
f 93/204/47 91/205/44 90/206/40
f 94/207/48 92/208/41 91/209/44
f 95/210/49 89/211/42 92/212/41
f 95/213/49 93/214/47 96/215/50
f 98/216/40 100/217/41 97/218/42
f 101/219/47 99/220/51 98/221/40
f 102/222/48 100/223/41 99/224/51
f 103/225/52 97/226/42 100/227/41
f 103/228/52 101/229/47 104/230/50
f 106/231/40 108/232/41 105/233/42
f 109/234/47 107/235/44 106/236/40
f 110/237/48 108/238/41 107/239/44
f 111/240/52 105/241/42 108/242/41
f 111/243/52 109/244/47 112/245/50
f 82/189/40 83/246/44 84/190/41
f 85/192/43 86/247/45 83/193/44
f 86/195/45 87/248/46 84/196/41
f 87/198/46 88/249/53 81/199/42
f 90/201/40 91/250/44 92/202/41
f 93/204/47 94/251/48 91/205/44
f 94/207/48 95/252/49 92/208/41
f 95/210/49 96/253/50 89/211/42
f 95/213/49 94/254/48 93/214/47
f 98/216/40 99/255/51 100/217/41
f 101/219/47 102/256/48 99/220/51
f 102/222/48 103/257/52 100/223/41
f 103/225/52 104/258/50 97/226/42
f 103/228/52 102/259/48 101/229/47
f 106/231/40 107/260/44 108/232/41
f 109/234/47 110/261/48 107/235/44
f 110/237/48 111/262/52 108/238/41
f 111/240/52 112/263/50 105/241/42
f 111/243/52 110/264/48 109/244/47
o columns004
v -15.074431 0.064741 -15.324409
v -14.883239 0.064741 -15.324409
v -14.883239 6.066042 -15.324409
v -15.074431 6.066042 -15.324409
v -14.883239 0.064741 -15.628807
v -14.883239 6.066042 -15.628807
v -15.074431 6.066042 -15.628807
v -15.074431 0.064741 -15.628807
v -15.074431 0.064743 14.957394
v -14.883239 0.064743 14.957394
v -14.883239 6.066044 14.957394
v -15.074431 6.066044 14.957394
v -14.883239 0.064743 14.652996
v -14.883239 6.066044 14.652996
v -15.074431 6.066044 14.652996
v -15.074431 0.064743 14.652996
v -15.114730 0.064743 5.498890
v -14.842940 0.064743 5.498890
v -14.842940 6.066044 5.498889
v -15.114730 6.066044 5.498889
v -14.842940 0.064743 5.194592
v -14.842940 6.066044 5.194591
v -15.114730 6.066044 5.194591
v -15.114730 0.064743 5.194592
v -15.114730 0.064742 -5.876911
v -14.842940 0.064742 -5.876911
v -14.842940 6.066043 -5.876912
v -15.114730 6.066043 -5.876912
v -14.842940 0.064742 -6.181309
v -14.842940 6.066043 -6.181309
v -15.114730 6.066043 -6.181309
v -15.114730 0.064742 -6.181309
vn 0.7071 -0.0000 0.7071
vn -0.5774 0.5774 0.5773
vn -0.7071 -0.0000 0.7071
vn 1.0000 -0.0000 -0.0000
vn 0.5773 0.5774 0.5774
vn 0.7071 0.7071 -0.0000
vn -0.7071 0.7071 -0.0000
vn 0.7071 -0.0000 -0.7071
vn 0.5774 0.5774 -0.5774
vn -0.5774 0.5774 -0.5774
vn -0.7071 -0.0000 -0.7071
vn -0.5774 0.5774 0.5774
vn 0.5774 0.5774 0.5774
vn -1.0000 -0.0000 -0.0000
vt 0.669500 0.000500
vt 0.637800 0.998300
vt 0.637800 0.000500
vt 0.187900 0.998300
vt 0.238500 0.000500
vt 0.238500 0.998300
vt 0.869500 0.051100
vt 0.837700 0.000500
vt 0.869500 0.000500
vt 0.176100 0.000500
vt 0.125500 0.998300
vt 0.125500 0.000500
vt 0.573700 0.000500
vt 0.542000 0.998300
vt 0.542000 0.000500
vt 0.437800 0.998300
vt 0.488400 0.000500
vt 0.488400 0.998300
vt 0.902800 0.051100
vt 0.871000 0.000500
vt 0.902800 0.000500
vt 0.426000 0.000500
vt 0.375400 0.998300
vt 0.375400 0.000500
vt 0.500300 0.000500
vt 0.532100 0.998300
vt 0.500300 0.998300
vt 0.724600 0.000500
vt 0.679400 0.998300
vt 0.679400 0.000500
vt 0.312900 0.998300
vt 0.363500 0.000500
vt 0.363500 0.998300
vt 0.999500 0.051100
vt 0.954300 0.000500
vt 0.999500 0.000500
vt 0.301000 0.000500
vt 0.250400 0.998300
vt 0.250400 0.000500
vt 0.583600 0.000500
vt 0.628800 0.998300
vt 0.583600 0.998300
vt 0.778700 0.000500
vt 0.733600 0.998300
vt 0.733600 0.000500
vt 0.000500 0.998300
vt 0.051100 0.000500
vt 0.051100 0.998300
vt 0.949500 0.051100
vt 0.904300 0.000500
vt 0.949500 0.000500
vt 0.113600 0.000500
vt 0.063000 0.998300
vt 0.063000 0.000500
vt 0.787700 0.000500
vt 0.832900 0.998300
vt 0.787700 0.998300
vt 0.669500 0.998300
vt 0.187900 0.000500
vt 0.837700 0.051100
vt 0.176100 0.998300
vt 0.573700 0.998300
vt 0.437800 0.000500
vt 0.871000 0.051100
vt 0.426000 0.998300
vt 0.532100 0.000500
vt 0.724600 0.998300
vt 0.312900 0.000500
vt 0.954300 0.051100
vt 0.301000 0.998300
vt 0.628800 0.000500
vt 0.778700 0.998300
vt 0.000500 0.000500
vt 0.904300 0.051100
vt 0.113600 0.998300
vt 0.832900 0.000500
s 1
f 114/265/54 116/266/55 113/267/56
f 117/268/57 115/269/58 114/270/54
f 118/271/59 116/272/55 115/273/58
f 119/274/60 113/275/56 116/276/55
f 122/277/54 124/278/55 121/279/56
f 125/280/61 123/281/58 122/282/54
f 126/283/62 124/284/55 123/285/58
f 127/286/63 121/287/56 124/288/55
f 127/289/63 125/290/61 128/291/64
f 130/292/54 132/293/65 129/294/56
f 133/295/61 131/296/66 130/297/54
f 134/298/62 132/299/65 131/300/66
f 135/301/63 129/302/56 132/303/65
f 135/304/63 133/305/61 136/306/64
f 138/307/54 140/308/65 137/309/56
f 141/310/61 139/311/58 138/312/54
f 142/313/62 140/314/65 139/315/58
f 143/316/63 137/317/56 140/318/65
f 143/319/63 141/320/61 144/321/64
f 114/265/54 115/322/58 116/266/55
f 117/268/57 118/323/59 115/269/58
f 118/271/59 119/324/60 116/272/55
f 119/274/60 120/325/67 113/275/56
f 122/277/54 123/326/58 124/278/55
f 125/280/61 126/327/62 123/281/58
f 126/283/62 127/328/63 124/284/55
f 127/286/63 128/329/64 121/287/56
f 127/289/63 126/330/62 125/290/61
f 130/292/54 131/331/66 132/293/65
f 133/295/61 134/332/62 131/296/66
f 134/298/62 135/333/63 132/299/65
f 135/301/63 136/334/64 129/302/56
f 135/304/63 134/335/62 133/305/61
f 138/307/54 139/336/58 140/308/65
f 141/310/61 142/337/62 139/311/58
f 142/313/62 143/338/63 140/314/65
f 143/316/63 144/339/64 137/317/56
f 143/319/63 142/340/62 141/320/61
o columns005
v -7.427840 0.064741 -15.324409
v -7.236632 0.064741 -15.324409
v -7.236632 6.066042 -15.324409
v -7.427840 6.066042 -15.324409
v -7.236632 0.064741 -15.628807
v -7.236632 6.066042 -15.628807
v -7.427840 6.066042 -15.628807
v -7.427840 0.064741 -15.628807
v -7.427840 0.064743 14.957394
v -7.236632 0.064743 14.957394
v -7.236632 6.066044 14.957394
v -7.427840 6.066044 14.957394
v -7.236632 0.064743 14.652996
v -7.236632 6.066044 14.652996
v -7.427840 6.066044 14.652996
v -7.427840 0.064743 14.652996
v -7.468139 0.064743 5.498890
v -7.196334 0.064743 5.498890
v -7.196334 6.066044 5.498889
v -7.468139 6.066044 5.498889
v -7.196334 0.064743 5.194592
v -7.196334 6.066044 5.194591
v -7.468139 6.066044 5.194591
v -7.468139 0.064743 5.194592
v -7.468139 0.064742 -5.876911
v -7.196334 0.064742 -5.876911
v -7.196334 6.066043 -5.876912
v -7.468139 6.066043 -5.876912
v -7.196334 0.064742 -6.181309
v -7.196334 6.066043 -6.181309
v -7.468139 6.066043 -6.181309
v -7.468139 0.064742 -6.181309
vn 0.7071 -0.0000 0.7071
vn -0.5774 0.5774 0.5774
vn -0.7071 -0.0000 0.7071
vn 1.0000 -0.0000 -0.0000
vn 0.5773 0.5774 0.5774
vn 0.7071 0.7071 -0.0000
vn -0.7071 0.7071 -0.0000
vn 0.7071 -0.0000 -0.7071
vn 0.5774 0.5774 -0.5774
vn -0.5774 0.5774 -0.5774
vn -0.7071 -0.0000 -0.7071
vn 0.5774 0.5774 0.5774
vn -1.0000 -0.0000 -0.0000
vt 0.669500 0.000500
vt 0.637800 0.998300
vt 0.637800 0.000500
vt 0.187900 0.998300
vt 0.238500 0.000500
vt 0.238500 0.998300
vt 0.869500 0.051100
vt 0.837700 0.000500
vt 0.869500 0.000500
vt 0.176100 0.000500
vt 0.125500 0.998300
vt 0.125500 0.000500
vt 0.573700 0.000500
vt 0.542000 0.998300
vt 0.542000 0.000500
vt 0.437800 0.998300
vt 0.488400 0.000500
vt 0.488400 0.998300
vt 0.902800 0.051100
vt 0.871000 0.000500
vt 0.902800 0.000500
vt 0.426000 0.000500
vt 0.375400 0.998300
vt 0.375400 0.000500
vt 0.500300 0.000500
vt 0.532100 0.998300
vt 0.500300 0.998300
vt 0.724600 0.000500
vt 0.679400 0.998300
vt 0.679400 0.000500
vt 0.312900 0.998300
vt 0.363500 0.000500
vt 0.363500 0.998300
vt 0.999500 0.051100
vt 0.954300 0.000500
vt 0.999500 0.000500
vt 0.301000 0.000500
vt 0.250400 0.998300
vt 0.250400 0.000500
vt 0.583600 0.000500
vt 0.628800 0.998300
vt 0.583600 0.998300
vt 0.778700 0.000500
vt 0.733600 0.998300
vt 0.733600 0.000500
vt 0.000500 0.998300
vt 0.051100 0.000500
vt 0.051100 0.998300
vt 0.949500 0.051100
vt 0.904300 0.000500
vt 0.949500 0.000500
vt 0.113600 0.000500
vt 0.063000 0.998300
vt 0.063000 0.000500
vt 0.787700 0.000500
vt 0.832900 0.998300
vt 0.787700 0.998300
vt 0.669500 0.998300
vt 0.187900 0.000500
vt 0.837700 0.051100
vt 0.176100 0.998300
vt 0.573700 0.998300
vt 0.437800 0.000500
vt 0.871000 0.051100
vt 0.426000 0.998300
vt 0.532100 0.000500
vt 0.724600 0.998300
vt 0.312900 0.000500
vt 0.954300 0.051100
vt 0.301000 0.998300
vt 0.628800 0.000500
vt 0.778700 0.998300
vt 0.000500 0.000500
vt 0.904300 0.051100
vt 0.113600 0.998300
vt 0.832900 0.000500
s 1
f 146/341/68 148/342/69 145/343/70
f 149/344/71 147/345/72 146/346/68
f 150/347/73 148/348/69 147/349/72
f 151/350/74 145/351/70 148/352/69
f 154/353/68 156/354/69 153/355/70
f 157/356/75 155/357/72 154/358/68
f 158/359/76 156/360/69 155/361/72
f 159/362/77 153/363/70 156/364/69
f 159/365/77 157/366/75 160/367/78
f 162/368/68 164/369/69 161/370/70
f 165/371/75 163/372/79 162/373/68
f 166/374/76 164/375/69 163/376/79
f 167/377/77 161/378/70 164/379/69
f 167/380/77 165/381/75 168/382/78
f 170/383/68 172/384/69 169/385/70
f 173/386/75 171/387/72 170/388/68
f 174/389/76 172/390/69 171/391/72
f 175/392/77 169/393/70 172/394/69
f 175/395/77 173/396/75 176/397/78
f 146/341/68 147/398/72 148/342/69
f 149/344/71 150/399/73 147/345/72
f 150/347/73 151/400/74 148/348/69
f 151/350/74 152/401/80 145/351/70
f 154/353/68 155/402/72 156/354/69
f 157/356/75 158/403/76 155/357/72
f 158/359/76 159/404/77 156/360/69
f 159/362/77 160/405/78 153/363/70
f 159/365/77 158/406/76 157/366/75
f 162/368/68 163/407/79 164/369/69
f 165/371/75 166/408/76 163/372/79
f 166/374/76 167/409/77 164/375/69
f 167/377/77 168/410/78 161/378/70
f 167/380/77 166/411/76 165/381/75
f 170/383/68 171/412/72 172/384/69
f 173/386/75 174/413/76 171/387/72
f 174/389/76 175/414/77 172/390/69
f 175/392/77 176/415/78 169/393/70
f 175/395/77 174/416/76 173/396/75
o columns006
v 0.218766 0.064741 -15.324409
v 0.409867 0.064741 -15.324409
v 0.409867 6.066042 -15.324409
v 0.218766 6.066042 -15.324409
v 0.409867 0.064741 -15.628807
v 0.409867 6.066042 -15.628807
v 0.218766 6.066042 -15.628807
v 0.218766 0.064741 -15.628807
v 0.218766 0.064743 14.957394
v 0.409867 0.064743 14.957394
v 0.409867 6.066044 14.957394
v 0.218766 6.066044 14.957394
v 0.409867 0.064743 14.652996
v 0.409867 6.066044 14.652996
v 0.218766 6.066044 14.652996
v 0.218766 0.064743 14.652996
v 0.178468 0.064743 5.498890
v 0.450166 0.064743 5.498890
v 0.450166 6.066044 5.498889
v 0.178468 6.066044 5.498889
v 0.450166 0.064743 5.194592
v 0.450166 6.066044 5.194591
v 0.178468 6.066044 5.194591
v 0.178468 0.064743 5.194592
v 0.178468 0.064742 -5.876911
v 0.450166 0.064742 -5.876911
v 0.450166 6.066043 -5.876912
v 0.178468 6.066043 -5.876912
v 0.450166 0.064742 -6.181309
v 0.450166 6.066043 -6.181309
v 0.178468 6.066043 -6.181309
v 0.178468 0.064742 -6.181309
vn 0.7071 -0.0000 0.7071
vn -0.5774 0.5774 0.5774
vn -0.7071 -0.0000 0.7071
vn 1.0000 -0.0000 -0.0000
vn 0.5773 0.5774 0.5774
vn 0.7071 0.7071 -0.0000
vn -0.7071 0.7071 -0.0000
vn 0.7071 -0.0000 -0.7071
vn 0.5774 0.5774 -0.5774
vn -0.5773 0.5774 -0.5774
vn -0.7071 -0.0000 -0.7071
vn 0.5774 0.5774 0.5774
vn -0.5774 0.5774 -0.5774
vn -1.0000 -0.0000 -0.0000
vt 0.669500 0.000500
vt 0.637800 0.998300
vt 0.637800 0.000500
vt 0.187900 0.998300
vt 0.238500 0.000500
vt 0.238500 0.998300
vt 0.869500 0.051100
vt 0.837700 0.000500
vt 0.869500 0.000500
vt 0.176100 0.000500
vt 0.125500 0.998300
vt 0.125500 0.000500
vt 0.573700 0.000500
vt 0.542000 0.998300
vt 0.542000 0.000500
vt 0.437800 0.998300
vt 0.488400 0.000500
vt 0.488400 0.998300
vt 0.902800 0.051100
vt 0.871000 0.000500
vt 0.902800 0.000500
vt 0.426000 0.000500
vt 0.375400 0.998300
vt 0.375400 0.000500
vt 0.500300 0.000500
vt 0.532100 0.998300
vt 0.500300 0.998300
vt 0.724600 0.000500
vt 0.679400 0.998300
vt 0.679400 0.000500
vt 0.312900 0.998300
vt 0.363500 0.000500
vt 0.363500 0.998300
vt 0.999500 0.051100
vt 0.954300 0.000500
vt 0.999500 0.000500
vt 0.301000 0.000500
vt 0.250400 0.998300
vt 0.250400 0.000500
vt 0.583600 0.000500
vt 0.628800 0.998300
vt 0.583600 0.998300
vt 0.778700 0.000500
vt 0.733600 0.998300
vt 0.733600 0.000500
vt 0.000500 0.998300
vt 0.051100 0.000500
vt 0.051100 0.998300
vt 0.949500 0.051100
vt 0.904300 0.000500
vt 0.949500 0.000500
vt 0.113600 0.000500
vt 0.063000 0.998300
vt 0.063000 0.000500
vt 0.787700 0.000500
vt 0.832900 0.998300
vt 0.787700 0.998300
vt 0.669500 0.998300
vt 0.187900 0.000500
vt 0.837700 0.051100
vt 0.176100 0.998300
vt 0.573700 0.998300
vt 0.437800 0.000500
vt 0.871000 0.051100
vt 0.426000 0.998300
vt 0.532100 0.000500
vt 0.724600 0.998300
vt 0.312900 0.000500
vt 0.954300 0.051100
vt 0.301000 0.998300
vt 0.628800 0.000500
vt 0.778700 0.998300
vt 0.000500 0.000500
vt 0.904300 0.051100
vt 0.113600 0.998300
vt 0.832900 0.000500
s 1
f 178/417/81 180/418/82 177/419/83
f 181/420/84 179/421/85 178/422/81
f 182/423/86 180/424/82 179/425/85
f 183/426/87 177/427/83 180/428/82
f 186/429/81 188/430/82 185/431/83
f 189/432/88 187/433/85 186/434/81
f 190/435/89 188/436/82 187/437/85
f 191/438/90 185/439/83 188/440/82
f 191/441/90 189/442/88 192/443/91
f 194/444/81 196/445/82 193/446/83
f 197/447/88 195/448/92 194/449/81
f 198/450/89 196/451/82 195/452/92
f 199/453/93 193/454/83 196/455/82
f 199/456/93 197/457/88 200/458/91
f 202/459/81 204/460/82 201/461/83
f 205/462/88 203/463/85 202/464/81
f 206/465/89 204/466/82 203/467/85
f 207/468/93 201/469/83 204/470/82
f 207/471/93 205/472/88 208/473/91
f 178/417/81 179/474/85 180/418/82
f 181/420/84 182/475/86 179/421/85
f 182/423/86 183/476/87 180/424/82
f 183/426/87 184/477/94 177/427/83
f 186/429/81 187/478/85 188/430/82
f 189/432/88 190/479/89 187/433/85
f 190/435/89 191/480/90 188/436/82
f 191/438/90 192/481/91 185/439/83
f 191/441/90 190/482/89 189/442/88
f 194/444/81 195/483/92 196/445/82
f 197/447/88 198/484/89 195/448/92
f 198/450/89 199/485/93 196/451/82
f 199/453/93 200/486/91 193/454/83
f 199/456/93 198/487/89 197/457/88
f 202/459/81 203/488/85 204/460/82
f 205/462/88 206/489/89 203/463/85
f 206/465/89 207/490/93 204/466/82
f 207/468/93 208/491/91 201/469/83
f 207/471/93 206/492/89 205/472/88
o columns007
v 7.865266 0.064741 -15.324409
v 8.056458 0.064741 -15.324409
v 8.056458 6.066042 -15.324409
v 7.865266 6.066042 -15.324409
v 8.056458 0.064741 -15.628807
v 8.056458 6.066042 -15.628807
v 7.865266 6.066042 -15.628807
v 7.865266 0.064741 -15.628807
v 7.865266 0.064743 14.957394
v 8.056458 0.064743 14.957394
v 8.056458 6.066044 14.957394
v 7.865266 6.066044 14.957394
v 8.056458 0.064743 14.652996
v 8.056458 6.066044 14.652996
v 7.865266 6.066044 14.652996
v 7.865266 0.064743 14.652996
v 7.824967 0.064743 5.498890
v 8.096757 0.064743 5.498890
v 8.096757 6.066044 5.498889
v 7.824967 6.066044 5.498889
v 8.096757 0.064743 5.194592
v 8.096757 6.066044 5.194591
v 7.824967 6.066044 5.194591
v 7.824967 0.064743 5.194592
v 7.824967 0.064742 -5.876911
v 8.096757 0.064742 -5.876911
v 8.096757 6.066043 -5.876912
v 7.824967 6.066043 -5.876912
v 8.096757 0.064742 -6.181309
v 8.096757 6.066043 -6.181309
v 7.824967 6.066043 -6.181309
v 7.824967 0.064742 -6.181309
vn 0.7071 -0.0000 0.7071
vn -0.5774 0.5774 0.5773
vn -0.7071 -0.0000 0.7071
vn 1.0000 -0.0000 -0.0000
vn 0.5773 0.5774 0.5774
vn 0.7071 0.7071 -0.0000
vn -0.7071 0.7071 -0.0000
vn 0.7071 -0.0000 -0.7071
vn 0.5774 0.5774 -0.5774
vn -0.5774 0.5774 -0.5774
vn -0.7071 -0.0000 -0.7071
vn -0.5774 0.5774 0.5774
vn 0.5774 0.5774 0.5774
vn -1.0000 -0.0000 -0.0000
vt 0.669500 0.000500
vt 0.637800 0.998300
vt 0.637800 0.000500
vt 0.187900 0.998300
vt 0.238500 0.000500
vt 0.238500 0.998300
vt 0.869500 0.051100
vt 0.837700 0.000500
vt 0.869500 0.000500
vt 0.176100 0.000500
vt 0.125500 0.998300
vt 0.125500 0.000500
vt 0.573700 0.000500
vt 0.542000 0.998300
vt 0.542000 0.000500
vt 0.437800 0.998300
vt 0.488400 0.000500
vt 0.488400 0.998300
vt 0.902800 0.051100
vt 0.871000 0.000500
vt 0.902800 0.000500
vt 0.426000 0.000500
vt 0.375400 0.998300
vt 0.375400 0.000500
vt 0.500300 0.000500
vt 0.532100 0.998300
vt 0.500300 0.998300
vt 0.724600 0.000500
vt 0.679400 0.998300
vt 0.679400 0.000500
vt 0.312900 0.998300
vt 0.363500 0.000500
vt 0.363500 0.998300
vt 0.999500 0.051100
vt 0.954300 0.000500
vt 0.999500 0.000500
vt 0.301000 0.000500
vt 0.250400 0.998300
vt 0.250400 0.000500
vt 0.583600 0.000500
vt 0.628800 0.998300
vt 0.583600 0.998300
vt 0.778700 0.000500
vt 0.733600 0.998300
vt 0.733600 0.000500
vt 0.000500 0.998300
vt 0.051100 0.000500
vt 0.051100 0.998300
vt 0.949500 0.051100
vt 0.904300 0.000500
vt 0.949500 0.000500
vt 0.113600 0.000500
vt 0.063000 0.998300
vt 0.063000 0.000500
vt 0.787700 0.000500
vt 0.832900 0.998300
vt 0.787700 0.998300
vt 0.669500 0.998300
vt 0.187900 0.000500
vt 0.837700 0.051100
vt 0.176100 0.998300
vt 0.573700 0.998300
vt 0.437800 0.000500
vt 0.871000 0.051100
vt 0.426000 0.998300
vt 0.532100 0.000500
vt 0.724600 0.998300
vt 0.312900 0.000500
vt 0.954300 0.051100
vt 0.301000 0.998300
vt 0.628800 0.000500
vt 0.778700 0.998300
vt 0.000500 0.000500
vt 0.904300 0.051100
vt 0.113600 0.998300
vt 0.832900 0.000500
s 1
f 210/493/95 212/494/96 209/495/97
f 213/496/98 211/497/99 210/498/95
f 214/499/100 212/500/96 211/501/99
f 215/502/101 209/503/97 212/504/96
f 218/505/95 220/506/96 217/507/97
f 221/508/102 219/509/99 218/510/95
f 222/511/103 220/512/96 219/513/99
f 223/514/104 217/515/97 220/516/96
f 223/517/104 221/518/102 224/519/105
f 226/520/95 228/521/106 225/522/97
f 229/523/102 227/524/107 226/525/95
f 230/526/103 228/527/106 227/528/107
f 231/529/104 225/530/97 228/531/106
f 231/532/104 229/533/102 232/534/105
f 234/535/95 236/536/106 233/537/97
f 237/538/102 235/539/99 234/540/95
f 238/541/103 236/542/106 235/543/99
f 239/544/104 233/545/97 236/546/106
f 239/547/104 237/548/102 240/549/105
f 210/493/95 211/550/99 212/494/96
f 213/496/98 214/551/100 211/497/99
f 214/499/100 215/552/101 212/500/96
f 215/502/101 216/553/108 209/503/97
f 218/505/95 219/554/99 220/506/96
f 221/508/102 222/555/103 219/509/99
f 222/511/103 223/556/104 220/512/96
f 223/514/104 224/557/105 217/515/97
f 223/517/104 222/558/103 221/518/102
f 226/520/95 227/559/107 228/521/106
f 229/523/102 230/560/103 227/524/107
f 230/526/103 231/561/104 228/527/106
f 231/529/104 232/562/105 225/530/97
f 231/532/104 230/563/103 229/533/102
f 234/535/95 235/564/99 236/536/106
f 237/538/102 238/565/103 235/539/99
f 238/541/103 239/566/104 236/542/106
f 239/544/104 240/567/105 233/545/97
f 239/547/104 238/568/103 237/548/102
o columns008
v 15.511857 0.064741 -15.324409
v 15.702958 0.064741 -15.324409
v 15.702958 6.066042 -15.324409
v 15.511857 6.066042 -15.324409
v 15.702958 0.064741 -15.628807
v 15.702958 6.066042 -15.628807
v 15.511857 6.066042 -15.628807
v 15.511857 0.064741 -15.628807
v 15.511857 0.064743 14.957394
v 15.702958 0.064743 14.957394
v 15.702958 6.066044 14.957394
v 15.511857 6.066044 14.957394
v 15.702958 0.064743 14.652996
v 15.702958 6.066044 14.652996
v 15.511857 6.066044 14.652996
v 15.511857 0.064743 14.652996
v 15.471467 0.064743 5.498890
v 15.743257 0.064743 5.498890
v 15.743257 6.066044 5.498889
v 15.471467 6.066044 5.498889
v 15.743257 0.064743 5.194592
v 15.743257 6.066044 5.194591
v 15.471467 6.066044 5.194591
v 15.471467 0.064743 5.194592
v 15.471467 0.064742 -5.876911
v 15.743257 0.064742 -5.876911
v 15.743257 6.066043 -5.876912
v 15.471467 6.066043 -5.876912
v 15.743257 0.064742 -6.181309
v 15.743257 6.066043 -6.181309
v 15.471467 6.066043 -6.181309
v 15.471467 0.064742 -6.181309
vn 0.7071 -0.0000 0.7071
vn -0.5774 0.5774 0.5774
vn -0.7071 -0.0000 0.7071
vn 1.0000 -0.0000 -0.0000
vn 0.5773 0.5774 0.5774
vn 0.7071 0.7071 -0.0000
vn -0.7071 0.7071 -0.0000
vn 0.7071 -0.0000 -0.7071
vn 0.5774 0.5774 -0.5774
vn -0.5773 0.5774 -0.5774
vn -0.7071 -0.0000 -0.7071
vn 0.5774 0.5774 0.5774
vn -0.5774 0.5774 -0.5774
vn -1.0000 -0.0000 -0.0000
vt 0.669500 0.000500
vt 0.637800 0.998300
vt 0.637800 0.000500
vt 0.187900 0.998300
vt 0.238500 0.000500
vt 0.238500 0.998300
vt 0.869500 0.051100
vt 0.837700 0.000500
vt 0.869500 0.000500
vt 0.176100 0.000500
vt 0.125500 0.998300
vt 0.125500 0.000500
vt 0.573700 0.000500
vt 0.542000 0.998300
vt 0.542000 0.000500
vt 0.437800 0.998300
vt 0.488400 0.000500
vt 0.488400 0.998300
vt 0.902800 0.051100
vt 0.871000 0.000500
vt 0.902800 0.000500
vt 0.426000 0.000500
vt 0.375400 0.998300
vt 0.375400 0.000500
vt 0.500300 0.000500
vt 0.532100 0.998300
vt 0.500300 0.998300
vt 0.724600 0.000500
vt 0.679400 0.998300
vt 0.679400 0.000500
vt 0.312900 0.998300
vt 0.363500 0.000500
vt 0.363500 0.998300
vt 0.999500 0.051100
vt 0.954300 0.000500
vt 0.999500 0.000500
vt 0.301000 0.000500
vt 0.250400 0.998300
vt 0.250400 0.000500
vt 0.583600 0.000500
vt 0.628800 0.998300
vt 0.583600 0.998300
vt 0.778700 0.000500
vt 0.733600 0.998300
vt 0.733600 0.000500
vt 0.000500 0.998300
vt 0.051100 0.000500
vt 0.051100 0.998300
vt 0.949500 0.051100
vt 0.904300 0.000500
vt 0.949500 0.000500
vt 0.113600 0.000500
vt 0.063000 0.998300
vt 0.063000 0.000500
vt 0.787700 0.000500
vt 0.832900 0.998300
vt 0.787700 0.998300
vt 0.669500 0.998300
vt 0.187900 0.000500
vt 0.837700 0.051100
vt 0.176100 0.998300
vt 0.573700 0.998300
vt 0.437800 0.000500
vt 0.871000 0.051100
vt 0.426000 0.998300
vt 0.532100 0.000500
vt 0.724600 0.998300
vt 0.312900 0.000500
vt 0.954300 0.051100
vt 0.301000 0.998300
vt 0.628800 0.000500
vt 0.778700 0.998300
vt 0.000500 0.000500
vt 0.904300 0.051100
vt 0.113600 0.998300
vt 0.832900 0.000500
s 1
f 242/569/109 244/570/110 241/571/111
f 245/572/112 243/573/113 242/574/109
f 246/575/114 244/576/110 243/577/113
f 247/578/115 241/579/111 244/580/110
f 250/581/109 252/582/110 249/583/111
f 253/584/116 251/585/113 250/586/109
f 254/587/117 252/588/110 251/589/113
f 255/590/118 249/591/111 252/592/110
f 255/593/118 253/594/116 256/595/119
f 258/596/109 260/597/110 257/598/111
f 261/599/116 259/600/120 258/601/109
f 262/602/117 260/603/110 259/604/120
f 263/605/121 257/606/111 260/607/110
f 263/608/121 261/609/116 264/610/119
f 266/611/109 268/612/110 265/613/111
f 269/614/116 267/615/113 266/616/109
f 270/617/117 268/618/110 267/619/113
f 271/620/121 265/621/111 268/622/110
f 271/623/121 269/624/116 272/625/119
f 242/569/109 243/626/113 244/570/110
f 245/572/112 246/627/114 243/573/113
f 246/575/114 247/628/115 244/576/110
f 247/578/115 248/629/122 241/579/111
f 250/581/109 251/630/113 252/582/110
f 253/584/116 254/631/117 251/585/113
f 254/587/117 255/632/118 252/588/110
f 255/590/118 256/633/119 249/591/111
f 255/593/118 254/634/117 253/594/116
f 258/596/109 259/635/120 260/597/110
f 261/599/116 262/636/117 259/600/120
f 262/602/117 263/637/121 260/603/110
f 263/605/121 264/638/119 257/606/111
f 263/608/121 262/639/117 261/609/116
f 266/611/109 267/640/113 268/612/110
f 269/614/116 270/641/117 267/615/113
f 270/617/117 271/642/121 268/618/110
f 271/620/121 272/643/119 265/621/111
f 271/623/121 270/644/117 269/624/116
o columns009
v 23.158356 0.064741 -15.324409
v 23.349564 0.064741 -15.324409
v 23.349564 6.066042 -15.324409
v 23.158356 6.066042 -15.324409
v 23.349564 0.064741 -15.628807
v 23.349564 6.066042 -15.628807
v 23.158356 6.066042 -15.628807
v 23.158356 0.064741 -15.628807
v 23.158356 0.064743 14.957394
v 23.349564 0.064743 14.957394
v 23.349564 6.066044 14.957394
v 23.158356 6.066044 14.957394
v 23.349564 0.064743 14.652996
v 23.349564 6.066044 14.652996
v 23.158356 6.066044 14.652996
v 23.158356 0.064743 14.652996
v 23.118057 0.064743 5.498890
v 23.389862 0.064743 5.498890
v 23.389862 6.066044 5.498889
v 23.118057 6.066044 5.498889
v 23.389862 0.064743 5.194592
v 23.389862 6.066044 5.194591
v 23.118057 6.066044 5.194591
v 23.118057 0.064743 5.194592
v 23.118057 0.064742 -5.876911
v 23.389862 0.064742 -5.876911
v 23.389862 6.066043 -5.876912
v 23.118057 6.066043 -5.876912
v 23.389862 0.064742 -6.181309
v 23.389862 6.066043 -6.181309
v 23.118057 6.066043 -6.181309
v 23.118057 0.064742 -6.181309
vn 0.7071 -0.0000 0.7071
vn -0.5774 0.5774 0.5774
vn -0.7071 -0.0000 0.7071
vn 1.0000 -0.0000 -0.0000
vn 0.5773 0.5774 0.5774
vn 0.7071 0.7071 -0.0000
vn -0.7071 0.7071 -0.0000
vn 0.7071 -0.0000 -0.7071
vn 0.5774 0.5774 -0.5774
vn -0.5774 0.5774 -0.5774
vn -0.7071 -0.0000 -0.7071
vn 0.5774 0.5774 0.5774
vn -1.0000 -0.0000 -0.0000
vt 0.669500 0.000500
vt 0.637800 0.998300
vt 0.637800 0.000500
vt 0.187900 0.998300
vt 0.238500 0.000500
vt 0.238500 0.998300
vt 0.869500 0.051100
vt 0.837700 0.000500
vt 0.869500 0.000500
vt 0.176100 0.000500
vt 0.125500 0.998300
vt 0.125500 0.000500
vt 0.573700 0.000500
vt 0.542000 0.998300
vt 0.542000 0.000500
vt 0.437800 0.998300
vt 0.488400 0.000500
vt 0.488400 0.998300
vt 0.902800 0.051100
vt 0.871000 0.000500
vt 0.902800 0.000500
vt 0.426000 0.000500
vt 0.375400 0.998300
vt 0.375400 0.000500
vt 0.500300 0.000500
vt 0.532100 0.998300
vt 0.500300 0.998300
vt 0.724600 0.000500
vt 0.679400 0.998300
vt 0.679400 0.000500
vt 0.312900 0.998300
vt 0.363500 0.000500
vt 0.363500 0.998300
vt 0.999500 0.051100
vt 0.954300 0.000500
vt 0.999500 0.000500
vt 0.301000 0.000500
vt 0.250400 0.998300
vt 0.250400 0.000500
vt 0.583600 0.000500
vt 0.628800 0.998300
vt 0.583600 0.998300
vt 0.778700 0.000500
vt 0.733600 0.998300
vt 0.733600 0.000500
vt 0.000500 0.998300
vt 0.051100 0.000500
vt 0.051100 0.998300
vt 0.949500 0.051100
vt 0.904300 0.000500
vt 0.949500 0.000500
vt 0.113600 0.000500
vt 0.063000 0.998300
vt 0.063000 0.000500
vt 0.787700 0.000500
vt 0.832900 0.998300
vt 0.787700 0.998300
vt 0.669500 0.998300
vt 0.187900 0.000500
vt 0.837700 0.051100
vt 0.176100 0.998300
vt 0.573700 0.998300
vt 0.437800 0.000500
vt 0.871000 0.051100
vt 0.426000 0.998300
vt 0.532100 0.000500
vt 0.724600 0.998300
vt 0.312900 0.000500
vt 0.954300 0.051100
vt 0.301000 0.998300
vt 0.628800 0.000500
vt 0.778700 0.998300
vt 0.000500 0.000500
vt 0.904300 0.051100
vt 0.113600 0.998300
vt 0.832900 0.000500
s 1
f 274/645/123 276/646/124 273/647/125
f 277/648/126 275/649/127 274/650/123
f 278/651/128 276/652/124 275/653/127
f 279/654/129 273/655/125 276/656/124
f 282/657/123 284/658/124 281/659/125
f 285/660/130 283/661/127 282/662/123
f 286/663/131 284/664/124 283/665/127
f 287/666/132 281/667/125 284/668/124
f 287/669/132 285/670/130 288/671/133
f 290/672/123 292/673/124 289/674/125
f 293/675/130 291/676/134 290/677/123
f 294/678/131 292/679/124 291/680/134
f 295/681/132 289/682/125 292/683/124
f 295/684/132 293/685/130 296/686/133
f 298/687/123 300/688/124 297/689/125
f 301/690/130 299/691/127 298/692/123
f 302/693/131 300/694/124 299/695/127
f 303/696/132 297/697/125 300/698/124
f 303/699/132 301/700/130 304/701/133
f 274/645/123 275/702/127 276/646/124
f 277/648/126 278/703/128 275/649/127
f 278/651/128 279/704/129 276/652/124
f 279/654/129 280/705/135 273/655/125
f 282/657/123 283/706/127 284/658/124
f 285/660/130 286/707/131 283/661/127
f 286/663/131 287/708/132 284/664/124
f 287/666/132 288/709/133 281/667/125
f 287/669/132 286/710/131 285/670/130
f 290/672/123 291/711/134 292/673/124
f 293/675/130 294/712/131 291/676/134
f 294/678/131 295/713/132 292/679/124
f 295/681/132 296/714/133 289/682/125
f 295/684/132 294/715/131 293/685/130
f 298/687/123 299/716/127 300/688/124
f 301/690/130 302/717/131 299/691/127
f 302/693/131 303/718/132 300/694/124
f 303/696/132 304/719/133 297/697/125
f 303/699/132 302/720/131 301/700/130
o columns010
v 30.804962 0.064741 -15.324409
v 30.996063 0.064741 -15.324409
v 30.996063 6.066042 -15.324409
v 30.804962 6.066042 -15.324409
v 30.996063 0.064741 -15.628807
v 30.996063 6.066042 -15.628807
v 30.804962 6.066042 -15.628807
v 30.804962 0.064741 -15.628807
v 30.804962 0.064743 14.957394
v 30.996063 0.064743 14.957394
v 30.996063 6.066044 14.957394
v 30.804962 6.066044 14.957394
v 30.996063 0.064743 14.652996
v 30.996063 6.066044 14.652996
v 30.804962 6.066044 14.652996
v 30.804962 0.064743 14.652996
v 30.764664 0.064743 5.498890
v 31.036469 0.064743 5.498890
v 31.036469 6.066044 5.498889
v 30.764664 6.066044 5.498889
v 31.036469 0.064743 5.194592
v 31.036469 6.066044 5.194591
v 30.764664 6.066044 5.194591
v 30.764664 0.064743 5.194592
v 30.764664 0.064742 -5.876911
v 31.036469 0.064742 -5.876911
v 31.036469 6.066043 -5.876912
v 30.764664 6.066043 -5.876912
v 31.036469 0.064742 -6.181309
v 31.036469 6.066043 -6.181309
v 30.764664 6.066043 -6.181309
v 30.764664 0.064742 -6.181309
vn 0.7071 -0.0000 0.7071
vn -0.5774 0.5774 0.5774
vn -0.7071 -0.0000 0.7071
vn 1.0000 -0.0000 -0.0000
vn 0.5773 0.5774 0.5774
vn 0.7071 0.7071 -0.0000
vn -0.7071 0.7071 -0.0000
vn 0.7071 -0.0000 -0.7071
vn 0.5774 0.5774 -0.5774
vn -0.5773 0.5774 -0.5774
vn -0.7071 -0.0000 -0.7071
vn 0.5774 0.5774 0.5774
vn -0.5774 0.5774 -0.5774
vn -1.0000 -0.0000 -0.0000
vt 0.669500 0.000500
vt 0.637800 0.998300
vt 0.637800 0.000500
vt 0.187900 0.998300
vt 0.238500 0.000500
vt 0.238500 0.998300
vt 0.869500 0.051100
vt 0.837700 0.000500
vt 0.869500 0.000500
vt 0.176100 0.000500
vt 0.125500 0.998300
vt 0.125500 0.000500
vt 0.573700 0.000500
vt 0.542000 0.998300
vt 0.542000 0.000500
vt 0.437800 0.998300
vt 0.488400 0.000500
vt 0.488400 0.998300
vt 0.902800 0.051100
vt 0.871000 0.000500
vt 0.902800 0.000500
vt 0.426000 0.000500
vt 0.375400 0.998300
vt 0.375400 0.000500
vt 0.500300 0.000500
vt 0.532100 0.998300
vt 0.500300 0.998300
vt 0.724600 0.000500
vt 0.679400 0.998300
vt 0.679400 0.000500
vt 0.312900 0.998300
vt 0.363500 0.000500
vt 0.363500 0.998300
vt 0.999500 0.051100
vt 0.954300 0.000500
vt 0.999500 0.000500
vt 0.301000 0.000500
vt 0.250400 0.998300
vt 0.250400 0.000500
vt 0.583600 0.000500
vt 0.628800 0.998300
vt 0.583600 0.998300
vt 0.778700 0.000500
vt 0.733600 0.998300
vt 0.733600 0.000500
vt 0.000500 0.998300
vt 0.051100 0.000500
vt 0.051100 0.998300
vt 0.949500 0.051100
vt 0.904300 0.000500
vt 0.949500 0.000500
vt 0.113600 0.000500
vt 0.063000 0.998300
vt 0.063000 0.000500
vt 0.787700 0.000500
vt 0.832900 0.998300
vt 0.787700 0.998300
vt 0.669500 0.998300
vt 0.187900 0.000500
vt 0.837700 0.051100
vt 0.176100 0.998300
vt 0.573700 0.998300
vt 0.437800 0.000500
vt 0.871000 0.051100
vt 0.426000 0.998300
vt 0.532100 0.000500
vt 0.724600 0.998300
vt 0.312900 0.000500
vt 0.954300 0.051100
vt 0.301000 0.998300
vt 0.628800 0.000500
vt 0.778700 0.998300
vt 0.000500 0.000500
vt 0.904300 0.051100
vt 0.113600 0.998300
vt 0.832900 0.000500
s 1
f 306/721/136 308/722/137 305/723/138
f 309/724/139 307/725/140 306/726/136
f 310/727/141 308/728/137 307/729/140
f 311/730/142 305/731/138 308/732/137
f 314/733/136 316/734/137 313/735/138
f 317/736/143 315/737/140 314/738/136
f 318/739/144 316/740/137 315/741/140
f 319/742/145 313/743/138 316/744/137
f 319/745/145 317/746/143 320/747/146
f 322/748/136 324/749/137 321/750/138
f 325/751/143 323/752/147 322/753/136
f 326/754/144 324/755/137 323/756/147
f 327/757/148 321/758/138 324/759/137
f 327/760/148 325/761/143 328/762/146
f 330/763/136 332/764/137 329/765/138
f 333/766/143 331/767/140 330/768/136
f 334/769/144 332/770/137 331/771/140
f 335/772/148 329/773/138 332/774/137
f 335/775/148 333/776/143 336/777/146
f 306/721/136 307/778/140 308/722/137
f 309/724/139 310/779/141 307/725/140
f 310/727/141 311/780/142 308/728/137
f 311/730/142 312/781/149 305/731/138
f 314/733/136 315/782/140 316/734/137
f 317/736/143 318/783/144 315/737/140
f 318/739/144 319/784/145 316/740/137
f 319/742/145 320/785/146 313/743/138
f 319/745/145 318/786/144 317/746/143
f 322/748/136 323/787/147 324/749/137
f 325/751/143 326/788/144 323/752/147
f 326/754/144 327/789/148 324/755/137
f 327/757/148 328/790/146 321/758/138
f 327/760/148 326/791/144 325/761/143
f 330/763/136 331/792/140 332/764/137
f 333/766/143 334/793/144 331/767/140
f 334/769/144 335/794/148 332/770/137
f 335/772/148 336/795/146 329/773/138
f 335/775/148 334/796/144 333/776/143
o columns011
v 38.417557 0.064741 -15.324409
v 38.608765 0.064741 -15.324409
v 38.608765 6.066042 -15.324409
v 38.417557 6.066042 -15.324409
v 38.608765 0.064741 -15.628807
v 38.608765 6.066042 -15.628807
v 38.417557 6.066042 -15.628807
v 38.417557 0.064741 -15.628807
v 38.417557 0.064743 14.957394
v 38.608765 0.064743 14.957394
v 38.608765 6.066044 14.957394
v 38.417557 6.066044 14.957394
v 38.608765 0.064743 14.652996
v 38.608765 6.066044 14.652996
v 38.417557 6.066044 14.652996
v 38.417557 0.064743 14.652996
v 38.377258 0.064743 5.498890
v 38.649063 0.064743 5.498890
v 38.649063 6.066044 5.498889
v 38.377258 6.066044 5.498889
v 38.649063 0.064743 5.194592
v 38.649063 6.066044 5.194591
v 38.377258 6.066044 5.194591
v 38.377258 0.064743 5.194592
v 38.377258 0.064742 -5.876911
v 38.649063 0.064742 -5.876911
v 38.649063 6.066043 -5.876912
v 38.377258 6.066043 -5.876912
v 38.649063 0.064742 -6.181309
v 38.649063 6.066043 -6.181309
v 38.377258 6.066043 -6.181309
v 38.377258 0.064742 -6.181309
vn 0.7071 -0.0000 0.7071
vn -0.5774 0.5774 0.5774
vn -0.7071 -0.0000 0.7071
vn 1.0000 -0.0000 -0.0000
vn 0.5773 0.5774 0.5774
vn 0.7071 0.7071 -0.0000
vn -0.7071 0.7071 -0.0000
vn 0.7071 -0.0000 -0.7071
vn 0.5774 0.5774 -0.5774
vn -0.5774 0.5774 -0.5774
vn -0.7071 -0.0000 -0.7071
vn 0.5774 0.5774 0.5774
vn -1.0000 -0.0000 -0.0000
vt 0.669500 0.000500
vt 0.637800 0.998300
vt 0.637800 0.000500
vt 0.187900 0.998300
vt 0.238500 0.000500
vt 0.238500 0.998300
vt 0.869500 0.051100
vt 0.837700 0.000500
vt 0.869500 0.000500
vt 0.176100 0.000500
vt 0.125500 0.998300
vt 0.125500 0.000500
vt 0.573700 0.000500
vt 0.542000 0.998300
vt 0.542000 0.000500
vt 0.437800 0.998300
vt 0.488400 0.000500
vt 0.488400 0.998300
vt 0.902800 0.051100
vt 0.871000 0.000500
vt 0.902800 0.000500
vt 0.426000 0.000500
vt 0.375400 0.998300
vt 0.375400 0.000500
vt 0.500300 0.000500
vt 0.532100 0.998300
vt 0.500300 0.998300
vt 0.724600 0.000500
vt 0.679400 0.998300
vt 0.679400 0.000500
vt 0.312900 0.998300
vt 0.363500 0.000500
vt 0.363500 0.998300
vt 0.999500 0.051100
vt 0.954300 0.000500
vt 0.999500 0.000500
vt 0.301000 0.000500
vt 0.250400 0.998300
vt 0.250400 0.000500
vt 0.583600 0.000500
vt 0.628800 0.998300
vt 0.583600 0.998300
vt 0.778700 0.000500
vt 0.733600 0.998300
vt 0.733600 0.000500
vt 0.000500 0.998300
vt 0.051100 0.000500
vt 0.051100 0.998300
vt 0.949500 0.051100
vt 0.904300 0.000500
vt 0.949500 0.000500
vt 0.113600 0.000500
vt 0.063000 0.998300
vt 0.063000 0.000500
vt 0.787700 0.000500
vt 0.832900 0.998300
vt 0.787700 0.998300
vt 0.669500 0.998300
vt 0.187900 0.000500
vt 0.837700 0.051100
vt 0.176100 0.998300
vt 0.573700 0.998300
vt 0.437800 0.000500
vt 0.871000 0.051100
vt 0.426000 0.998300
vt 0.532100 0.000500
vt 0.724600 0.998300
vt 0.312900 0.000500
vt 0.954300 0.051100
vt 0.301000 0.998300
vt 0.628800 0.000500
vt 0.778700 0.998300
vt 0.000500 0.000500
vt 0.904300 0.051100
vt 0.113600 0.998300
vt 0.832900 0.000500
s 1
f 338/797/150 340/798/151 337/799/152
f 341/800/153 339/801/154 338/802/150
f 342/803/155 340/804/151 339/805/154
f 343/806/156 337/807/152 340/808/151
f 346/809/150 348/810/151 345/811/152
f 349/812/157 347/813/154 346/814/150
f 350/815/158 348/816/151 347/817/154
f 351/818/159 345/819/152 348/820/151
f 351/821/159 349/822/157 352/823/160
f 354/824/150 356/825/151 353/826/152
f 357/827/157 355/828/161 354/829/150
f 358/830/158 356/831/151 355/832/161
f 359/833/159 353/834/152 356/835/151
f 359/836/159 357/837/157 360/838/160
f 362/839/150 364/840/151 361/841/152
f 365/842/157 363/843/154 362/844/150
f 366/845/158 364/846/151 363/847/154
f 367/848/159 361/849/152 364/850/151
f 367/851/159 365/852/157 368/853/160
f 338/797/150 339/854/154 340/798/151
f 341/800/153 342/855/155 339/801/154
f 342/803/155 343/856/156 340/804/151
f 343/806/156 344/857/162 337/807/152
f 346/809/150 347/858/154 348/810/151
f 349/812/157 350/859/158 347/813/154
f 350/815/158 351/860/159 348/816/151
f 351/818/159 352/861/160 345/819/152
f 351/821/159 350/862/158 349/822/157
f 354/824/150 355/863/161 356/825/151
f 357/827/157 358/864/158 355/828/161
f 358/830/158 359/865/159 356/831/151
f 359/833/159 360/866/160 353/834/152
f 359/836/159 358/867/158 357/837/157
f 362/839/150 363/868/154 364/840/151
f 365/842/157 366/869/158 363/843/154
f 366/845/158 367/870/159 364/846/151
f 367/848/159 368/871/160 361/849/152
f 367/851/159 366/872/158 365/852/157
o columns012
v 46.064056 0.064741 -15.324409
v 46.255264 0.064741 -15.324409
v 46.255264 6.066042 -15.324409
v 46.064056 6.066042 -15.324409
v 46.255264 0.064741 -15.628807
v 46.255264 6.066042 -15.628807
v 46.064056 6.066042 -15.628807
v 46.064056 0.064741 -15.628807
v 46.064056 0.064743 14.957394
v 46.255264 0.064743 14.957394
v 46.255264 6.066044 14.957394
v 46.064056 6.066044 14.957394
v 46.255264 0.064743 14.652996
v 46.255264 6.066044 14.652996
v 46.064056 6.066044 14.652996
v 46.064056 0.064743 14.652996
v 46.023758 0.064743 5.498890
v 46.295563 0.064743 5.498890
v 46.295563 6.066044 5.498889
v 46.023758 6.066044 5.498889
v 46.295563 0.064743 5.194592
v 46.295563 6.066044 5.194591
v 46.023758 6.066044 5.194591
v 46.023758 0.064743 5.194592
v 46.023758 0.064742 -5.876911
v 46.295563 0.064742 -5.876911
v 46.295563 6.066043 -5.876912
v 46.023758 6.066043 -5.876912
v 46.295563 0.064742 -6.181309
v 46.295563 6.066043 -6.181309
v 46.023758 6.066043 -6.181309
v 46.023758 0.064742 -6.181309
vn 0.7071 -0.0000 0.7071
vn -0.5774 0.5774 0.5774
vn -0.7071 -0.0000 0.7071
vn 1.0000 -0.0000 -0.0000
vn 0.5773 0.5774 0.5774
vn 0.7071 0.7071 -0.0000
vn -0.7071 0.7071 -0.0000
vn 0.7071 -0.0000 -0.7071
vn 0.5774 0.5774 -0.5774
vn -0.5774 0.5774 -0.5774
vn -0.7071 -0.0000 -0.7071
vn 0.5774 0.5774 0.5774
vn -1.0000 -0.0000 -0.0000
vt 0.669500 0.000500
vt 0.637800 0.998300
vt 0.637800 0.000500
vt 0.187900 0.998300
vt 0.238500 0.000500
vt 0.238500 0.998300
vt 0.869500 0.051100
vt 0.837700 0.000500
vt 0.869500 0.000500
vt 0.176100 0.000500
vt 0.125500 0.998300
vt 0.125500 0.000500
vt 0.573700 0.000500
vt 0.542000 0.998300
vt 0.542000 0.000500
vt 0.437800 0.998300
vt 0.488400 0.000500
vt 0.488400 0.998300
vt 0.902800 0.051100
vt 0.871000 0.000500
vt 0.902800 0.000500
vt 0.426000 0.000500
vt 0.375400 0.998300
vt 0.375400 0.000500
vt 0.500300 0.000500
vt 0.532100 0.998300
vt 0.500300 0.998300
vt 0.724600 0.000500
vt 0.679400 0.998300
vt 0.679400 0.000500
vt 0.312900 0.998300
vt 0.363500 0.000500
vt 0.363500 0.998300
vt 0.999500 0.051100
vt 0.954300 0.000500
vt 0.999500 0.000500
vt 0.301000 0.000500
vt 0.250400 0.998300
vt 0.250400 0.000500
vt 0.583600 0.000500
vt 0.628800 0.998300
vt 0.583600 0.998300
vt 0.778700 0.000500
vt 0.733600 0.998300
vt 0.733600 0.000500
vt 0.000500 0.998300
vt 0.051100 0.000500
vt 0.051100 0.998300
vt 0.949500 0.051100
vt 0.904300 0.000500
vt 0.949500 0.000500
vt 0.113600 0.000500
vt 0.063000 0.998300
vt 0.063000 0.000500
vt 0.787700 0.000500
vt 0.832900 0.998300
vt 0.787700 0.998300
vt 0.669500 0.998300
vt 0.187900 0.000500
vt 0.837700 0.051100
vt 0.176100 0.998300
vt 0.573700 0.998300
vt 0.437800 0.000500
vt 0.871000 0.051100
vt 0.426000 0.998300
vt 0.532100 0.000500
vt 0.724600 0.998300
vt 0.312900 0.000500
vt 0.954300 0.051100
vt 0.301000 0.998300
vt 0.628800 0.000500
vt 0.778700 0.998300
vt 0.000500 0.000500
vt 0.904300 0.051100
vt 0.113600 0.998300
vt 0.832900 0.000500
s 1
f 370/873/163 372/874/164 369/875/165
f 373/876/166 371/877/167 370/878/163
f 374/879/168 372/880/164 371/881/167
f 375/882/169 369/883/165 372/884/164
f 378/885/163 380/886/164 377/887/165
f 381/888/170 379/889/167 378/890/163
f 382/891/171 380/892/164 379/893/167
f 383/894/172 377/895/165 380/896/164
f 383/897/172 381/898/170 384/899/173
f 386/900/163 388/901/164 385/902/165
f 389/903/170 387/904/174 386/905/163
f 390/906/171 388/907/164 387/908/174
f 391/909/172 385/910/165 388/911/164
f 391/912/172 389/913/170 392/914/173
f 394/915/163 396/916/164 393/917/165
f 397/918/170 395/919/167 394/920/163
f 398/921/171 396/922/164 395/923/167
f 399/924/172 393/925/165 396/926/164
f 399/927/172 397/928/170 400/929/173
f 370/873/163 371/930/167 372/874/164
f 373/876/166 374/931/168 371/877/167
f 374/879/168 375/932/169 372/880/164
f 375/882/169 376/933/175 369/883/165
f 378/885/163 379/934/167 380/886/164
f 381/888/170 382/935/171 379/889/167
f 382/891/171 383/936/172 380/892/164
f 383/894/172 384/937/173 377/895/165
f 383/897/172 382/938/171 381/898/170
f 386/900/163 387/939/174 388/901/164
f 389/903/170 390/940/171 387/904/174
f 390/906/171 391/941/172 388/907/164
f 391/909/172 392/942/173 385/910/165
f 391/912/172 390/943/171 389/913/170
f 394/915/163 395/944/167 396/916/164
f 397/918/170 398/945/171 395/919/167
f 398/921/171 399/946/172 396/922/164
f 399/924/172 400/947/173 393/925/165
f 399/927/172 398/948/171 397/928/170
