# Blender 4.0.2
# www.blender.org
o floor
v -45.565041 0.064742 -7.982307
v -45.565041 0.064742 -0.335712
v -37.918541 0.064742 -0.335712
v -37.918541 0.064742 -7.982307
v -45.565041 0.064743 7.310894
v -45.565041 0.064743 14.957394
v -37.918541 0.064743 14.957394
v -37.918541 0.064743 7.310894
v -37.918541 0.064741 -15.628807
v -45.565041 0.064741 -15.628807
vn -0.0000 1.0000 -0.0000
vt 0.500000 0.250300
vt 0.749800 0.000500
vt 0.749800 0.250300
vt 0.000500 0.250300
vt 0.250300 0.000500
vt 0.250300 0.250300
vt 0.500000 0.000500
vt 0.999500 0.000500
vt 0.000500 0.000500
vt 0.999500 0.250300
s 1
f 2/1/1 4/2/1 1/3/1
f 6/4/1 8/5/1 5/6/1
f 5/6/1 3/7/1 2/1/1
f 9/8/1 1/3/1 4/2/1
f 2/1/1 3/7/1 4/2/1
f 6/4/1 7/9/1 8/5/1
f 5/6/1 8/5/1 3/7/1
f 9/8/1 10/10/1 1/3/1
o floor001
v -37.918541 0.064742 -7.982307
v -37.918541 0.064742 -0.335712
v -30.271942 0.064742 -0.335712
v -30.271942 0.064742 -7.982307
v -37.918541 0.064743 7.310894
v -37.918541 0.064743 14.957394
v -30.271942 0.064743 14.957394
v -30.271942 0.064743 7.310894
v -30.271942 0.064741 -15.628807
v -37.918541 0.064741 -15.628807
vn -0.0000 1.0000 -0.0000
vt 0.500000 0.250300
vt 0.749800 0.000500
vt 0.749800 0.250300
vt 0.000500 0.250300
vt 0.250300 0.000500
vt 0.250300 0.250300
vt 0.500000 0.000500
vt 0.999500 0.000500
vt 0.000500 0.000500
vt 0.999500 0.250300
s 1
f 12/11/2 14/12/2 11/13/2
f 16/14/2 18/15/2 15/16/2
f 15/16/2 13/17/2 12/11/2
f 19/18/2 11/13/2 14/12/2
f 12/11/2 13/17/2 14/12/2
f 16/14/2 17/19/2 18/15/2
f 15/16/2 18/15/2 13/17/2
f 19/18/2 20/20/2 11/13/2
o floor002
v -30.271942 0.064742 -7.982307
v -30.271942 0.064742 -0.335712
v -22.625336 0.064742 -0.335712
v -22.625336 0.064742 -7.982307
v -30.271942 0.064743 7.310894
v -30.271942 0.064743 14.957394
v -22.625336 0.064743 14.957394
v -22.625336 0.064743 7.310894
v -22.625336 0.064741 -15.628807
v -30.271942 0.064741 -15.628807
vn -0.0000 1.0000 -0.0000
vt 0.500000 0.250300
vt 0.749800 0.000500
vt 0.749800 0.250300
vt 0.000500 0.250300
vt 0.250300 0.000500
vt 0.250300 0.250300
vt 0.500000 0.000500
vt 0.999500 0.000500
vt 0.000500 0.000500
vt 0.999500 0.250300
s 1
f 22/21/3 24/22/3 21/23/3
f 26/24/3 28/25/3 25/26/3
f 25/26/3 23/27/3 22/21/3
f 29/28/3 21/23/3 24/22/3
f 22/21/3 23/27/3 24/22/3
f 26/24/3 27/29/3 28/25/3
f 25/26/3 28/25/3 23/27/3
f 29/28/3 30/30/3 21/23/3
o floor003
v -22.625336 0.064742 -7.982307
v -22.625336 0.064742 -0.335712
v -14.978835 0.064742 -0.335712
v -14.978835 0.064742 -7.982307
v -22.625336 0.064743 7.310894
v -22.625336 0.064743 14.957394
v -14.978835 0.064743 14.957394
v -14.978835 0.064743 7.310894
v -14.978835 0.064741 -15.628807
v -22.625336 0.064741 -15.628807
vn -0.0000 1.0000 -0.0000
vt 0.500000 0.250300
vt 0.749800 0.000500
vt 0.749800 0.250300
vt 0.000500 0.250300
vt 0.250300 0.000500
vt 0.250300 0.250300
vt 0.500000 0.000500
vt 0.999500 0.000500
vt 0.000500 0.000500
vt 0.999500 0.250300
s 1
f 32/31/4 34/32/4 31/33/4
f 36/34/4 38/35/4 35/36/4
f 35/36/4 33/37/4 32/31/4
f 39/38/4 31/33/4 34/32/4
f 32/31/4 33/37/4 34/32/4
f 36/34/4 37/39/4 38/35/4
f 35/36/4 38/35/4 33/37/4
f 39/38/4 40/40/4 31/33/4
o floor004
v -14.978835 0.064742 -7.982307
v -14.978835 0.064742 -0.335712
v -7.332244 0.064742 -0.335712
v -7.332244 0.064742 -7.982307
v -14.978835 0.064743 7.310894
v -14.978835 0.064743 14.957394
v -7.332244 0.064743 14.957394
v -7.332244 0.064743 7.310894
v -7.332244 0.064741 -15.628807
v -14.978835 0.064741 -15.628807
vn -0.0000 1.0000 -0.0000
vt 0.500000 0.250300
vt 0.749800 0.000500
vt 0.749800 0.250300
vt 0.000500 0.250300
vt 0.250300 0.000500
vt 0.250300 0.250300
vt 0.500000 0.000500
vt 0.999500 0.000500
vt 0.000500 0.000500
vt 0.999500 0.250300
s 1
f 42/41/5 44/42/5 41/43/5
f 46/44/5 48/45/5 45/46/5
f 45/46/5 43/47/5 42/41/5
f 49/48/5 41/43/5 44/42/5
f 42/41/5 43/47/5 44/42/5
f 46/44/5 47/49/5 48/45/5
f 45/46/5 48/45/5 43/47/5
f 49/48/5 50/50/5 41/43/5
o floor005
v -7.332244 0.064742 -7.982307
v -7.332244 0.064742 -0.335712
v 0.314271 0.064742 -0.335712
v 0.314271 0.064742 -7.982307
v -7.332244 0.064743 7.310894
v -7.332244 0.064743 14.957394
v 0.314271 0.064743 14.957394
v 0.314271 0.064743 7.310894
v 0.314271 0.064741 -15.628807
v -7.332244 0.064741 -15.628807
vn -0.0000 1.0000 -0.0000
vt 0.500000 0.250300
vt 0.749800 0.000500
vt 0.749800 0.250300
vt 0.000500 0.250300
vt 0.250300 0.000500
vt 0.250300 0.250300
vt 0.500000 0.000500
vt 0.999500 0.000500
vt 0.000500 0.000500
vt 0.999500 0.250300
s 1
f 52/51/6 54/52/6 51/53/6
f 56/54/6 58/55/6 55/56/6
f 55/56/6 53/57/6 52/51/6
f 59/58/6 51/53/6 54/52/6
f 52/51/6 53/57/6 54/52/6
f 56/54/6 57/59/6 58/55/6
f 55/56/6 58/55/6 53/57/6
f 59/58/6 60/60/6 51/53/6
o floor006
v 0.314363 0.064742 -7.982307
v 0.314363 0.064742 -0.335712
v 7.960862 0.064742 -0.335712
v 7.960862 0.064742 -7.982307
v 0.314363 0.064743 7.310894
v 0.314363 0.064743 14.957394
v 7.960862 0.064743 14.957394
v 7.960862 0.064743 7.310894
v 7.960862 0.064741 -15.628807
v 0.314363 0.064741 -15.628807
vn -0.0000 1.0000 -0.0000
vt 0.500000 0.250300
vt 0.749800 0.000500
vt 0.749800 0.250300
vt 0.000500 0.250300
vt 0.250300 0.000500
vt 0.250300 0.250300
vt 0.500000 0.000500
vt 0.999500 0.000500
vt 0.000500 0.000500
vt 0.999500 0.250300
s 1
f 62/61/7 64/62/7 61/63/7
f 66/64/7 68/65/7 65/66/7
f 65/66/7 63/67/7 62/61/7
f 69/68/7 61/63/7 64/62/7
f 62/61/7 63/67/7 64/62/7
f 66/64/7 67/69/7 68/65/7
f 65/66/7 68/65/7 63/67/7
f 69/68/7 70/70/7 61/63/7
o floor007
v 7.960862 0.064742 -7.982307
v 7.960862 0.064742 -0.335712
v 15.607469 0.064742 -0.335712
v 15.607469 0.064742 -7.982307
v 7.960862 0.064743 7.310894
v 7.960862 0.064743 14.957394
v 15.607469 0.064743 14.957394
v 15.607469 0.064743 7.310894
v 15.607469 0.064741 -15.628807
v 7.960862 0.064741 -15.628807
vn -0.0000 1.0000 -0.0000
vt 0.500000 0.250300
vt 0.749800 0.000500
vt 0.749800 0.250300
vt 0.000500 0.250300
vt 0.250300 0.000500
vt 0.250300 0.250300
vt 0.500000 0.000500
vt 0.999500 0.000500
vt 0.000500 0.000500
vt 0.999500 0.250300
s 1
f 72/71/8 74/72/8 71/73/8
f 76/74/8 78/75/8 75/76/8
f 75/76/8 73/77/8 72/71/8
f 79/78/8 71/73/8 74/72/8
f 72/71/8 73/77/8 74/72/8
f 76/74/8 77/79/8 78/75/8
f 75/76/8 78/75/8 73/77/8
f 79/78/8 80/80/8 71/73/8
o floor008
v 15.607469 0.064742 -7.982307
v 15.607469 0.064742 -0.335712
v 23.254059 0.064742 -0.335712
v 23.254059 0.064742 -7.982307
v 15.607469 0.064743 7.310894
v 15.607469 0.064743 14.957394
v 23.254059 0.064743 14.957394
v 23.254059 0.064743 7.310894
v 23.254059 0.064741 -15.628807
v 15.607469 0.064741 -15.628807
vn -0.0000 1.0000 -0.0000
vt 0.500000 0.250300
vt 0.749800 0.000500
vt 0.749800 0.250300
vt 0.000500 0.250300
vt 0.250300 0.000500
vt 0.250300 0.250300
vt 0.500000 0.000500
vt 0.999500 0.000500
vt 0.000500 0.000500
vt 0.999500 0.250300
s 1
f 82/81/9 84/82/9 81/83/9
f 86/84/9 88/85/9 85/86/9
f 85/86/9 83/87/9 82/81/9
f 89/88/9 81/83/9 84/82/9
f 82/81/9 83/87/9 84/82/9
f 86/84/9 87/89/9 88/85/9
f 85/86/9 88/85/9 83/87/9
f 89/88/9 90/90/9 81/83/9
o floor009
v 23.253967 0.064742 -7.982307
v 23.253967 0.064742 -0.335712
v 30.900558 0.064742 -0.335712
v 30.900558 0.064742 -7.982307
v 23.253967 0.064743 7.310894
v 23.253967 0.064743 14.957394
v 30.900558 0.064743 14.957394
v 30.900558 0.064743 7.310894
v 30.900558 0.064741 -15.628807
v 23.253967 0.064741 -15.628807
vn -0.0000 1.0000 -0.0000
vt 0.500000 0.250300
vt 0.749800 0.000500
vt 0.749800 0.250300
vt 0.000500 0.250300
vt 0.250300 0.000500
vt 0.250300 0.250300
vt 0.500000 0.000500
vt 0.999500 0.000500
vt 0.000500 0.000500
vt 0.999500 0.250300
s 1
f 92/91/10 94/92/10 91/93/10
f 96/94/10 98/95/10 95/96/10
f 95/96/10 93/97/10 92/91/10
f 99/98/10 91/93/10 94/92/10
f 92/91/10 93/97/10 94/92/10
f 96/94/10 97/99/10 98/95/10
f 95/96/10 98/95/10 93/97/10
f 99/98/10 100/100/10 91/93/10
o floor010
v 30.900558 0.064742 -7.982307
v 30.900558 0.064742 -0.335712
v 38.547165 0.064742 -0.335712
v 38.547165 0.064742 -7.982307
v 30.900558 0.064743 7.310894
v 30.900558 0.064743 14.957394
v 38.547165 0.064743 14.957394
v 38.547165 0.064743 7.310894
v 38.547165 0.064741 -15.628807
v 30.900558 0.064741 -15.628807
vn -0.0000 1.0000 -0.0000
vt 0.500000 0.250300
vt 0.749800 0.000500
vt 0.749800 0.250300
vt 0.000500 0.250300
vt 0.250300 0.000500
vt 0.250300 0.250300
vt 0.500000 0.000500
vt 0.999500 0.000500
vt 0.000500 0.000500
vt 0.999500 0.250300
s 1
f 102/101/11 104/102/11 101/103/11
f 106/104/11 108/105/11 105/106/11
f 105/106/11 103/107/11 102/101/11
f 109/108/11 101/103/11 104/102/11
f 102/101/11 103/107/11 104/102/11
f 106/104/11 107/109/11 108/105/11
f 105/106/11 108/105/11 103/107/11
f 109/108/11 110/110/11 101/103/11
o floor011
v 38.547165 0.064742 -7.982307
v 38.547165 0.064742 -0.335712
v 46.193665 0.064742 -0.335712
v 46.193665 0.064742 -7.982307
v 38.547165 0.064743 7.310894
v 38.547165 0.064743 14.957394
v 46.193665 0.064743 14.957394
v 46.193665 0.064743 7.310894
v 46.193665 0.064741 -15.628807
v 38.547165 0.064741 -15.628807
vn -0.0000 1.0000 -0.0000
vt 0.500000 0.250300
vt 0.749800 0.000500
vt 0.749800 0.250300
vt 0.000500 0.250300
vt 0.250300 0.000500
vt 0.250300 0.250300
vt 0.500000 0.000500
vt 0.999500 0.000500
vt 0.000500 0.000500
vt 0.999500 0.250300
s 1
f 112/111/12 114/112/12 111/113/12
f 116/114/12 118/115/12 115/116/12
f 115/116/12 113/117/12 112/111/12
f 119/118/12 111/113/12 114/112/12
f 112/111/12 113/117/12 114/112/12
f 116/114/12 117/119/12 118/115/12
f 115/116/12 118/115/12 113/117/12
f 119/118/12 120/120/12 111/113/12
